<?xml version="1.0" standalone="no"?>
<!DOCTYPE svg PUBLIC "-//W3C//DTD SVG 20010904//EN"
 "http://www.w3.org/TR/2001/REC-SVG-20010904/DTD/svg10.dtd">
<svg version="1.0" xmlns="http://www.w3.org/2000/svg"
 width="260.000000pt" height="260.000000pt" viewBox="0 0 260.000000 260.000000"
 preserveAspectRatio="xMidYMid meet">
<metadata>
Created by potrace 1.11, written by Peter Selinger 2001-2013
</metadata>
<g transform="translate(0.000000,260.000000) scale(0.100000,-0.100000)"
fill="#000000" stroke="none">
<path d="M1144 2526 c-59 -26 -69 -102 -19 -148 l24 -23 -52 -3 c-167 -10
-363 -86 -506 -196 -81 -63 -121 -111 -121 -146 0 -37 36 -78 75 -86 33 -6 46
2 152 89 68 56 190 118 283 144 48 13 102 18 205 18 119 0 151 -3 215 -23 271
-85 466 -280 546 -547 34 -115 38 -289 10 -400 -34 -131 -99 -251 -192 -356
-34 -39 -44 -57 -44 -85 0 -48 37 -84 85 -84 l36 0 -33 -29 c-146 -127 -357
-211 -574 -227 -88 -6 -96 -9 -119 -36 -33 -39 -32 -81 1 -115 l26 -26 -78 7
c-226 18 -481 133 -654 292 -76 71 -116 80 -160 36 -29 -30 -38 -69 -24 -106
9 -22 157 -146 239 -198 102 -66 183 -105 298 -143 159 -52 280 -68 471 -62
214 6 344 39 531 131 383 190 639 525 722 944 25 128 23 376 -5 502 -24 109
-72 250 -112 331 -46 91 -148 235 -214 304 -51 54 -67 65 -94 65 -18 0 -42 -5
-54 -11 -24 -13 -50 -72 -41 -95 3 -9 -35 15 -85 53 -187 142 -391 218 -637
237 -49 4 -79 2 -101 -8z"/>
<path d="M1426 1566 c-120 -45 -162 -187 -75 -260 16 -14 73 -39 128 -56 127
-39 157 -72 128 -143 -18 -42 -68 -67 -136 -67 -93 0 -151 44 -151 115 0 23
-4 25 -40 25 -39 0 -40 -1 -40 -35 0 -114 104 -185 253 -173 154 13 241 124
189 241 -23 51 -57 73 -157 101 -100 28 -117 37 -132 73 -18 44 -2 81 47 105
42 22 121 23 159 4 28 -15 51 -53 51 -86 0 -17 7 -20 41 -20 l42 0 -6 40 c-7
51 -45 102 -94 126 -49 23 -156 29 -207 10z"/>
<path d="M225 1558 c-8 -25 -115 -546 -115 -562 0 -14 8 -17 38 -14 l37 3 61
288 c33 158 58 289 56 292 -11 11 -73 4 -77 -7z"/>
<path d="M435 1558 c-8 -28 -115 -546 -115 -562 0 -24 67 -23 74 2 3 9 23 112
46 227 23 116 44 219 47 230 4 11 23 -90 44 -225 21 -135 38 -246 38 -248 1
-2 18 -2 39 0 l37 3 143 244 c78 135 142 240 142 235 0 -6 -22 -107 -50 -225
-27 -118 -52 -224 -55 -236 -5 -21 -2 -23 33 -23 l39 0 57 273 c32 149 60 282
63 295 5 21 2 22 -50 22 l-54 0 -144 -251 c-79 -137 -145 -244 -146 -237 -2 7
-19 116 -38 242 -20 126 -38 233 -41 238 -8 13 -104 10 -109 -4z"/>
<path d="M1145 1558 c-12 -31 -122 -564 -118 -570 2 -5 19 -8 38 -8 23 0 35 5
39 18 10 32 116 542 116 557 0 19 -68 21 -75 3z"/>
</g>
</svg>
