<?xml version="1.0" standalone="no"?>
<!DOCTYPE svg PUBLIC "-//W3C//DTD SVG 20010904//EN"
 "http://www.w3.org/TR/2001/REC-SVG-20010904/DTD/svg10.dtd">
<svg version="1.0" xmlns="http://www.w3.org/2000/svg"
 width="256.000000pt" height="256.000000pt" viewBox="0 0 256.000000 256.000000"
 preserveAspectRatio="xMidYMid meet">
<metadata>
Created by potrace 1.11, written by Peter Selinger 2001-2013
</metadata>
<g transform="translate(0.000000,256.000000) scale(0.100000,-0.100000)"
fill="#000000" stroke="none">
<path d="M1173 2505 c-29 -12 -53 -51 -53 -85 0 -10 11 -32 25 -48 l25 -30
-58 -7 c-210 -25 -420 -121 -564 -258 -42 -39 -48 -51 -48 -85 0 -33 6 -45 31
-66 45 -38 79 -34 138 18 154 137 317 204 511 211 325 12 609 -159 746 -450
138 -294 91 -613 -126 -865 -61 -71 -68 -108 -27 -155 17 -20 32 -27 60 -27
l36 0 -42 -35 c-149 -125 -350 -204 -553 -218 -96 -7 -116 -14 -140 -50 -21
-32 -11 -89 19 -110 20 -14 19 -15 -28 -15 -198 1 -493 124 -668 281 -34 31
-72 61 -85 68 -53 28 -122 -20 -122 -85 0 -39 49 -91 172 -184 143 -108 297
-180 482 -226 135 -34 364 -43 514 -20 489 75 907 432 1056 903 82 261 82 546
-1 806 -54 173 -164 362 -285 490 -56 60 -67 67 -101 67 -28 0 -44 -7 -62 -26
-26 -28 -28 -35 -25 -72 1 -20 -10 -15 -88 45 -148 112 -335 194 -507 222
-106 17 -200 19 -232 6z"/>
<path d="M1460 1545 c-91 -28 -142 -119 -114 -201 18 -52 55 -80 139 -105 103
-30 124 -39 145 -67 25 -31 25 -56 0 -97 -25 -40 -64 -55 -140 -55 -78 0 -121
29 -136 90 -10 42 -13 45 -45 45 -30 0 -34 -4 -37 -29 -7 -58 29 -116 93 -149
60 -32 192 -31 258 2 68 33 101 80 101 145 0 93 -46 138 -174 171 -86 22 -115
39 -129 73 -27 64 33 122 127 122 83 0 132 -37 132 -100 0 -17 7 -20 40 -20
35 0 40 3 40 23 -1 36 -36 103 -66 124 -60 43 -151 53 -234 28z"/>
<path d="M254 1535 c-1 -5 -12 -55 -23 -110 -11 -55 -36 -176 -56 -269 -19
-93 -35 -175 -35 -183 0 -9 11 -12 37 -11 l37 3 53 250 c29 138 55 269 59 291
l6 41 -37 -1 c-21 0 -39 -5 -41 -11z"/>
<path d="M465 1531 c-7 -26 -115 -544 -115 -557 0 -18 69 -13 74 5 3 9 23 111
46 226 22 116 43 221 47 235 6 23 30 -117 64 -360 15 -109 22 -122 62 -118 30
3 39 16 174 246 78 134 143 246 146 248 2 3 -20 -98 -49 -223 -69 -293 -67
-268 -23 -269 l36 -2 60 287 c34 157 59 288 56 291 -2 3 -27 5 -54 5 l-49 1
-142 -250 -143 -249 -32 199 c-17 109 -35 222 -40 249 l-8 50 -52 1 c-40 1
-54 -3 -58 -15z"/>
<path d="M1174 1536 c-8 -22 -114 -539 -114 -556 0 -25 67 -26 74 -1 8 26 116
546 116 558 0 13 -71 13 -76 -1z"/>
</g>
</svg>
