<?xml version="1.0" encoding="utf-8"?>
<!-- Generator: Adobe Illustrator 16.0.0, SVG Export Plug-In . SVG Version: 6.00 Build 0)  -->
<!DOCTYPE svg PUBLIC "-//W3C//DTD SVG 1.1//EN" "http://www.w3.org/Graphics/SVG/1.1/DTD/svg11.dtd">
<svg version="1.1" id="Ebene_1" xmlns="http://www.w3.org/2000/svg" xmlns:xlink="http://www.w3.org/1999/xlink" x="0px"
	 y="0px"
	 width="189px" height="36.75px" viewBox="-41 155.875 189 36.75" enable-background="new -41 155.875 189 36.75"
	 xml:space="preserve">
<g>
	<g>
		<path fill="#6B0D37" d="M36.057,180.645c4.564,0,6.832-4.093,6.832-7.02c0-3.779-2.959-7.084-6.832-7.084
			c-3.905,0-6.801,3.305-6.801,7.084C29.255,177.371,32.15,180.645,36.057,180.645 M44.966,179.513c0,1.858,0,4.188-1.574,6.297
			c-2.171,3.023-6.14,3.181-6.833,3.181c-2.456,0-7.241-0.947-8.814-6.329h2.331c0.566,1.417,2.266,4.348,6.454,4.348
			c2.897,0,6.233-1.67,6.233-6.426v-1.512h-0.063c-1.29,2.457-4.125,3.557-6.642,3.557c-4.535,0-9.006-3.525-9.006-8.94
			c0-5.478,4.471-9.132,9.006-9.132c1.573,0,4.659,0.474,6.642,3.528h0.063v-3.086h2.206v14.515H44.966z"/>
		<path fill="#6B0D37" d="M50.467,165.04h2.183v2.463h0.062c1.027-2.399,2.961-2.774,4.801-2.899v2.307
			c-1.527,0.125-2.836,0.687-3.677,1.685c-0.749,0.936-1.185,2.15-1.185,3.521v10.222h-2.183L50.467,165.04L50.467,165.04z"/>
		<path fill="#6B0D37" d="M68.419,180.729c3.305,0,6.735-2.619,6.735-7.077c0-4.488-3.805-6.89-6.735-6.89
			c-3.116,0-6.733,2.558-6.733,7.078C61.686,177.799,64.896,180.729,68.419,180.729 M68.388,164.801
			c5.051,0,8.946,4.272,8.946,8.945c0,4.645-3.833,8.946-8.946,8.946c-4.987,0-8.884-4.207-8.884-8.822
			C59.504,168.479,63.9,164.801,68.388,164.801"/>
		<path fill="#6B0D37" d="M110.167,166.544c-3.928,0-6.827,3.271-6.827,7.014c0,3.991,3.149,6.952,6.827,6.952
			c4.177,0,6.983-3.119,6.983-6.921C117.15,169.257,113.909,166.544,110.167,166.544 M101.281,165.016h2.185v2.992h0.062
			c1.962-2.805,4.801-3.429,6.64-3.429c5.58,0,9.164,4.365,9.164,8.915c0,4.894-3.804,8.977-9.164,8.977
			c-1.776,0-4.736-0.623-6.64-3.397h-0.062v8.979h-2.185V165.016z"/>
		<path fill="#6B0D37" d="M137.22,164.697c4.942,0,8.948,4.008,8.948,8.949c0,4.944-4.006,8.95-8.948,8.95l2.573-9.066
			L137.22,164.697z"/>
		<path fill="#6B0D37" d="M96.216,174.654v-9.636h-2.183v9.604c0,2.151-0.466,3.553-1.215,4.49c-1.185,1.341-2.776,1.62-3.96,1.62
			c-0.036,0-0.072-0.002-0.108-0.004c-0.035,0.002-0.072,0.004-0.108,0.004c-1.185,0-2.776-0.28-3.959-1.62
			c-0.748-0.935-1.216-2.339-1.216-4.49v-9.604h-2.181v9.636c0,1.809,0.281,3.989,1.496,5.487c0.748,0.935,2.496,2.556,5.861,2.556
			c0.039,0,0.073-0.003,0.108-0.004c0.037,0.001,0.071,0.004,0.108,0.004c3.367,0,5.113-1.619,5.862-2.556
			C95.937,178.644,96.216,176.463,96.216,174.654"/>
	</g>
	<polygon fill="#6B0D37" points="-26.629,165.012 -29.933,175.896 -29.994,175.896 -33.3,165.012 -38.662,165.012 -32.459,182.41 
		-27.502,182.41 -21.268,165.012 	"/>
	<path fill="#6B0D37"
		  d="M-17.392,182.41h5.175v-17.396h-5.175V182.41z M-17.392,163.271h5.175v-3.927h-5.175V163.271z"/>
	<g>
		<path fill="#6B0D37" d="M17.35,173.671c0,2.396-1.942,4.34-4.338,4.34c-2.395,0-4.336-1.944-4.336-4.34
			c0-2.395,1.941-4.335,4.336-4.335C15.408,169.336,17.35,171.276,17.35,173.671 M22.668,182.37v-17.353h-3.818l-0.002,1.868
			c-1.389-1.735-3.639-2.473-5.873-2.473c-5.08,0-9.197,4.118-9.197,9.196c0,5.08,4.117,9.198,9.197,9.198
			c2.233,0,4.282-0.799,5.875-2.124v1.687H22.668L22.668,182.37z"/>
	</g>
	<polygon fill="#6B0D37" points="-6.955,159.344 -6.955,182.41 -1.78,182.41 -1.78,168.941 1.451,168.941 1.451,165.012 
		-1.78,165.012 -1.78,159.344 	"/>
	<g>
		<path fill="#6B0D37" d="M125.91,164.697c4.941,0,8.949,4.008,8.949,8.949c0,4.944-4.008,8.95-8.949,8.95l2.572-9.066
			L125.91,164.697z"/>
	</g>
</g>
</svg>
